# xmcd
#
# Track frame offsets: 
#        150
#        43117
#        61885
#        81229
#        138003
#
# Disc length: 2193 seconds
#
# Revision: 0
# Processed by: cddbd v1.5.1PL0 Copyright (c) Steve Scherf et al.
# Submitted via: ExactAudioCopy v0.95a5
#
DISCID=3a088f05
DTITLE=Blues Traveler - 2000-11-11 Northern Lights, Clifton Park, NY
DYEAR=2000
DGENRE=Blues
TTITLE0=No Woman, No Cry 
TTITLE1=Save His Soul 
TTITLE2=The Devil Went Down To Georgia 
TTITLE3=Mother Funker 
TTITLE4=Every Little Thing She Does Is Magic
EXTD=
EXTT0=
EXTT1=
EXTT2=
EXTT3=
EXTT4=
PLAYORDER=
